<?xml version="1.0" encoding="iso-8859-1"?>
<!-- Generator: Adobe Illustrator 19.0.0, SVG Export Plug-In . SVG Version: 6.00 Build 0)  -->
<svg version="1.1" id="Layer_1" xmlns="http://www.w3.org/2000/svg" xmlns:xlink="http://www.w3.org/1999/xlink" x="0px" y="0px"
	 viewBox="0 0 512 512" style="enable-background:new 0 0 512 512;" xml:space="preserve">
<circle style="fill:#273B7A;" cx="256" cy="256" r="256"/>
<path style="fill:#121149;" d="M511.879,248.432L385.086,121.639L111.14,395.583l114.633,114.633
	C235.689,511.383,245.772,512,256,512c141.384,0,256-114.616,256-256C512,253.468,511.953,250.947,511.879,248.432z"/>
<path style="fill:#9AE9EF;" d="M291.409,236.023L161.842,365.589c-13.122,13.121-28.424,22.988-42.541,27.427l-8.161,2.567
	l2.567-8.161c4.441-14.117,14.307-29.418,27.427-42.541l129.567-129.565"/>
<g>
	<path style="fill:#38C6D9;" d="M111.295,395.533l8.006-2.517c14.117-4.441,29.418-14.307,42.541-27.427l129.567-129.565
		l-10.302-10.302L111.295,395.533z"/>
	<polygon style="fill:#38C6D9;" points="295.126,164.011 358.588,123.978 382.748,148.139 342.716,211.601 	"/>
</g>
<polygon style="fill:#23ACB7;" points="318.973,187.856 342.716,211.601 382.748,148.139 370.719,136.109 "/>
<path style="fill:#638CAD;" d="M328.616,178.11c-30.006-30.006-74.002-37.49-110.994-22.461c-2.701,1.096-3.381,4.624-1.321,6.685
	L344.39,290.423c2.062,2.062,5.587,1.381,6.685-1.321C366.106,252.113,358.624,208.117,328.616,178.11z"/>
<path style="fill:#366695;" d="M280.398,226.43l63.993,63.993c2.062,2.062,5.587,1.381,6.685-1.319
	c15.02-36.969,7.554-80.936-22.411-110.94L280.398,226.43z"/>
<path style="fill:#638CAD;" d="M385.086,121.639c-10.3-10.3-23.176-16.448-36.555-18.453c-4.346-0.652-7.039,4.567-3.931,7.673
	l51.266,51.266c3.106,3.106,8.325,0.415,7.673-3.931C401.536,144.815,395.388,131.939,385.086,121.639z"/>
<path style="fill:#366695;" d="M385.136,121.692l-14.851,14.851l25.581,25.581c3.106,3.106,8.325,0.414,7.673-3.931
	C401.537,144.839,395.405,131.984,385.136,121.692z"/>
<g>
</g>
<g>
</g>
<g>
</g>
<g>
</g>
<g>
</g>
<g>
</g>
<g>
</g>
<g>
</g>
<g>
</g>
<g>
</g>
<g>
</g>
<g>
</g>
<g>
</g>
<g>
</g>
<g>
</g>
</svg>
