<?xml version="1.0" encoding="iso-8859-1"?>
<!-- Generator: Adobe Illustrator 19.0.0, SVG Export Plug-In . SVG Version: 6.00 Build 0)  -->
<svg version="1.1" id="Layer_1" xmlns="http://www.w3.org/2000/svg" xmlns:xlink="http://www.w3.org/1999/xlink" x="0px" y="0px"
	 viewBox="0 0 508 508" style="enable-background:new 0 0 508 508;" xml:space="preserve">
<circle style="fill:#324A5E;" cx="254" cy="254" r="254"/>
<path style="fill:#FFFFFF;" d="M413.2,150.8H86.6c-4.3,0-7.8,3.5-7.8,7.8V381c0,4.3,3.5,7.8,7.8,7.8h350.7c4.3,0,7.8-3.5,7.8-7.8
	V182.7h-24c-4.3,0-7.8-3.5-7.8-7.8v-24.1H413.2z"/>
<g>
	<path style="fill:#99CBFE;" d="M306.6,270.7c-1,5.7-6,10.4-11.7,10.9c1.3,1.6,3.3,2.7,5.4,2.8c-3.4,4.5-6.8,9.1-10.2,13.6
		c-1.3,1.8-2.7,4-1.9,6.1c0.6,1.4,2.1,2.3,2.7,3.8s0,3.1-0.6,4.6c-1.8,4.4-3.6,8.9-5.4,13.3c-1.1,2.6-2.2,5.4-4.6,6.9
		c-3.2,2.1-7.7,1.2-10.6-1.4c-2.9-2.5-4.3-6.3-5.1-10.1c-0.8-3.6-1-7.4-0.2-11c0.4-1.5,0.9-3.1,0.8-4.6c-0.3-2.4-2.1-4.2-3.4-6.2
		c-2.1-3.2-2.9-7.3-2.2-11.1c-6,1.1-12,2.1-18,2.9c-0.8,0.1-1.8,0.2-2.4-0.4c-0.6-0.6-0.7-1.6-0.6-2.4c0.3-7.7,0.7-15.7,4.6-22.4
		c1.1-1.9,2.5-3.7,3.3-5.7c1.9-4.7,0.4-9.9,0-14.9c-0.1-1.1-0.1-2.2,0.5-3.1c0.5-0.8,1.4-1.2,2.2-1.6c3.5-1.7,6.9-3.3,10.4-5
		c4.4-2.1,8.9-4.2,13.7-4.4c2-0.1,4.1,0.2,6-0.4c1.9-0.6,3.7-2.3,3.5-4.3c-0.2-1.8-2-3-3.7-3.7s-3.6-1.2-4.8-2.6
		c-1.2-1.4-1.2-4,0.6-4.6c-3.1,0.9-4.2,4.5-5.2,7.6c-1,3-3.4,6.5-6.5,5.8c-3.3-5.5-0.3-13.2,5-16.7c5.3-3.6,12.2-3.9,18.6-3.1
		c2.1,0.3,4.3,0.8,5.5,2.5c1.1,1.7-0.3,4.8-2.3,4.2c5.1,2.4,10.2-2.8,15.4-5.1c8-3.6,19.2-0.7,24.5-7.7c0.8-1.1,1.4-2.3,2.4-3.2
		c1.2-1,2.9-1.4,4.5-1.6c4.8-0.8,9.9-1.7,14.6-0.3c4.4,1.3,8.1,4.3,12.3,6c11.1,4.6,24.1-0.3,35.5,3.3c2.7,0.8,5.2,2.1,8,2.3
		c4.6,0.3,9.2-2.5,13.7-1.1c-1.4,3.5-2.9,7.1-4.3,10.6c-0.4,1-0.9,2.1-1.7,2.8c-0.9,0.8-2.2,1-3.3,1.2c-3.6,0.4-7.4,0.1-10.9-0.9
		c-1-0.3-2-0.6-3.1-0.4c-1.8,0.4-2.7,2.5-4.1,3.8c-4.1,3.7-12.1-0.4-15.7,3.8c-1.4,1.6-1.5,4.1-0.3,5.9c1.2,1.7,3.6,2.5,5.6,1.8
		c1.3,2.4,0,5.4-2,7.3c-5.9,5.4-16.1,4.2-21.1,10.5c2.1,1.9,4.3,3.8,5.4,6.4s0.8,6-1.4,7.7c-2,1.5-4.7,1.2-7.1,1.5
		c-2.4,0.2-5.3,1.5-5.5,3.9c2.2,3.1,3.3,7,3,10.9c-2.6,2.4-6.8-0.4-8.3-3.7c-1.4-3.2-1.9-7.2-4.7-9.3c-4.1-3.2-10-0.3-14.3,2.7
		c0.7,3.5,4.1,7.3,1.7,10c-1.8,2-5.5,0.6-6.9-1.7c-1.4-2.4-1.6-5.3-2.7-7.8c-1.7-4-5.5-6.7-9-9.1c-2.1-1.4-4.2-2.9-6.7-3.4
		s-5.4,0.3-6.6,2.5C300,267,303.4,268.7,306.6,270.7z"/>
	<path style="fill:#99CBFE;" d="M369.8,333c0.7-0.8,1.1-1.7,2-2.3c0.7-0.5,1.5-0.6,2.3-0.7c1.7-0.2,3.4-0.4,5.1,0s3.3,1.5,3.8,3.1
		c0.6,1.8-0.1,4.1,1.4,5.2c0.7,0.6,1.7,0.6,2.6,0.6c1.3,0,2.8-0.1,3.7-1.1c0.6-0.7,0.8-1.8,0.9-2.7c0.4-4.2,0.8-8.4,1.2-12.7
		c0.1-0.7,0.1-1.4-0.2-2c-0.4-0.7-1.1-1-1.8-1.3c-3.9-2-6.3-6.5-5.8-10.8c0.1-0.7,0.2-1.4,0-2.1c-0.7-1.7-3.4-1.3-4.5,0.2
		s-1.3,3.4-2.1,5c-0.8,1.6-2.9,3-4.4,2c-1-0.7-1.2-2.3-2.3-3c-1.3-1-3.3-0.1-4.5,1.1s-2.2,2.7-3.8,3.3c-0.9,0.3-1.8,0.3-2.6,0.8
		c-1.5,1-1.1,3.3-1.8,4.9c-0.8,2-3.1,3.3-3.2,5.4c0,1.3,0.8,2.4,1.7,3.4c1.6,1.9,3.3,3.7,5.5,4.7C365.2,335,368.1,334.8,369.8,333z"
		/>
	<path style="fill:#99CBFE;" d="M219.7,302.7c-0.1,2.6-0.2,5.2-0.2,7.8c0,1.3-0.1,2.7-0.6,3.9c-0.7,1.7-2.3,3-3.7,4.2
		c-4,3.5-7.3,7.8-10.5,12.1c-2.9,3.9-5.8,7.8-8.7,11.7c-1.8,2.4-3.6,5-3.8,8c-0.1,1.4,0.3,2.9-0.1,4.3c-0.3,1.4-1.7,2.7-3.1,2.2
		c-3.4-1.3-3.3-6.6-2.5-10.2s2.5-6.8,4-10.1c0.4-0.9,0.7-1.8,0.7-2.8s-0.4-1.9-0.7-2.8c-0.9-2.8-1-5.9-0.2-8.8
		c0.3-1.1,0.7-2.2,0.7-3.3c0.1-1.1-0.3-2.4-1.2-3c-0.4-0.3-1-0.5-1.3-0.9c-0.4-0.5-0.5-1.2-0.7-1.7c-0.4-1-1.3-1.7-2.1-2.4
		c-3.4-3.2-5.4-7.9-4.9-12.5c0.2-1.9,0.8-3.7,1.4-5.4c1-3,2.1-6.1,3.5-9c0.3-0.5,0.6-1,1-1.4c0.6-0.5,1.5-0.5,2.3-0.6
		c3.4-0.2,6.8-0.3,10.2,0.5c3.3,0.8,6.5,2.7,8,5.8c1,2,0.9,4.9-1.2,5.7c-0.5,0.2-1,0.3-1.3,0.6c-0.5,0.5-0.3,1.5,0.1,2.1
		c1.3,1.8,3.9,1.9,6.2,1.9c3,0,6.1,0.4,9.1,1c0.3,0.1,0.6,0.1,0.8,0.4c0.2,0.2,0.3,0.6,0.3,0.9c0.1,1.4,0,3.2-1.3,3.7"/>
	<path style="fill:#99CBFE;" d="M183.6,284.9c-1.5,0.7-3.5,0.1-4.4-1.3c-0.4-0.6-0.6-1.4-1.3-1.8c-0.4-0.2-0.8-0.3-1.2-0.5
		c-1.5-0.8-1.3-2.9-1.5-4.6c-0.2-1.4-0.8-2.7-1.7-3.7c-0.2-0.2-0.5-0.5-0.8-0.5c-0.5-0.1-1,0.3-1.4,0.7c-1.7,1.5-3.9,2.4-6.1,2.6
		c-0.6-3.8-0.8-7.6-0.6-11.4c4.3-1.3,8.6-2.6,12.9-3.8c0.7-0.2,1.5-0.4,2.2-0.3c0.5,0.1,1,0.3,1.5,0.4c1,0.1,1.9-0.6,2.5-1.3
		c3.2-3.3,3.8-8.3,5.4-12.7c0.2-0.6,0.5-1.2,1-1.7c0.5-0.4,1.1-0.6,1.7-0.8c4-1.2,7.9-2.3,11.9-3.5c0.9-2.1,0.4-4.6-0.4-6.8
		c-1.8-4.4-5.2-8.2-9.5-10.1c-3.3-1.5-7.2-1.8-10.6-0.5c-0.4,0.1-0.7,0.3-0.9,0.7c-0.2,0.5,0.2,1.1,0.6,1.5c1.2,1.6,1.7,3.8,0.9,5.6
		s-2.9,3.1-4.8,2.6c-1.2-0.3-2.1-1.2-3-2c-1.4-1.3-2.8-2.6-4.3-4c-1.6-1.5-3.3-3.4-2.8-5.5c0.6-2.6,3.9-3.3,5.4-5.5
		c0.5-0.7,0.8-1.6,1.3-2.3c1.2-2,3.5-3.2,5.8-3s4.4,1.7,5.3,3.8c0.6,1.3,0.8,3,2,3.7c0.4,0.3,0.9,0.4,1.4,0.4c4,0.5,8.1-1.7,9.9-5.3
		c0.9-1.8,1.1-4.2-0.3-5.6c-1-1-2.5-1.3-3.9-1.5c-4-0.6-8-1.2-12-1.8c0.2-1.9-3.1-2.9-2.6-4.7c0.1-0.4,0.4-0.7,0.7-1
		c2.4-2.3,5.7-3.8,7.4-6.7c0.9-1.6,1.6-3.7,3.4-3.7c1.4,0,3-0.6,4-1.5c0.3-0.2,0.5-0.5,0.6-0.8c0.1-0.5-0.4-0.9-0.9-1.2
		c-6.7-4-15.1-3.1-22.8-2c-2,0.3-4.1,0.6-5.6,1.9c-2.3,1.9-2.4,5.8-0.3,7.9c0.5,0.5,1,0.9,1.4,1.4c0.5,0.7,0.6,1.6,0.8,2.4
		c0.5,3.4,0.7,7.6-2.1,9.6c-1.6,1.2-3.8,1.2-5.7,1.9c-2.1,0.9-3.7,2.8-5.9,3.3c-1.6,0.4-3.4,0-5-0.4c-3-0.7-6-1.5-9-2.2
		c-1.8-0.4-3.6-0.9-5.4-0.9c-2.5,0-5,0.8-7.5,1.2c-3.6,0.5-7.2,0-10.8-0.5c-1.9-0.3-3.8-0.6-5.7-0.4c-2,0.2-3.9,0.8-5.8,1.5
		c-0.5,0.2-0.9,0.3-1.3,0.7c-1,0.9-0.8,2.4-0.6,3.7c1.6,0.5,2.2,2.9,1,4.1c-0.6,0.6-1.4,0.8-2,1.3c-1.1,1.1-1,2.9-0.7,4.4
		c0.1,0.4,0.1,0.9,0.4,1.2c0.5,0.6,1.3,0.6,2,0.6c2.5,0,5,0.1,7.6,0.1c1.5,0,3.6-0.5,3.5-2c-0.1-0.7-0.6-1.5-0.1-2
		c0.3-0.4,0.9-0.2,1.4-0.1c3.1,1,6.2,2.1,9.3,3.1c2.3,0.7,4.7,1.6,5.9,3.7c0.7,1.1,0.9,2.4,1.5,3.5c0.8,1.4,2.3,2.3,3.7,3.2
		s2.9,1.8,3.7,3.2s0.8,3.5-0.5,4.5c-2.4,1.8-3.8,4.8-4.5,7.8c-0.2,0.7-0.3,1.6,0.2,2.1c0.4,0.4,1,0.5,1.6,0.7
		c4.3,0.8,8.5,3.3,10.2,7.4c0.7,1.7,1,3.7,2.2,5.1c0.7,0.9,1.8,1.4,2.7,2.1c1.7,1.2,3.3,2.6,4.7,4.2c1,1.2,2,2.6,3.5,3.2
		c1,0.3,2.1,0.3,2.9,0.8c1.7,1.1,1.6,3.8,3.1,5c0.5,0.4,1.2,0.6,1.8,0.8c3.9,1.3,7.9,2.6,11.8,4c0.6,0.2,1.3,0.4,1.9,0.1
		C184.6,286.6,184.2,284.6,183.6,284.9z"/>
	<path style="fill:#99CBFE;" d="M201.6,202.9c-2.4-3.1-7-3.3-10.9-3.3c0.1-1.8,2.7-2.2,4-3.5c1.1-1,1.2-2.7,2-4
		c1.2-2,3.5-2.8,5.7-3.5c2.4-0.8,4.8-1.6,7.3-1.9c1.7-0.2,3.4-0.2,5.1-0.6c1.4-0.3,2.7-1,4-1.3c1.8-0.5,3.7-0.5,5.5-0.4
		c3.2,0.1,6.3,0.3,9.5,0.6c0.6,0.1,1.4,0.2,1.8,0.7c0.3,0.4,0.3,1.1,0.3,1.6c-0.1,3.6-0.2,7.1-0.3,10.7c-0.1,2-0.1,4.1-1.1,5.9
		c-1.5,2.7-4.9,4.1-6.2,6.9c-0.5,1.1-0.8,2.5-1.9,3c-0.7,0.3-1.4,0.2-2.1,0.1c-2-0.1-3.9,0.8-5.2,2.3c-1.7,2-2.6,5.3-5.2,5.8
		c-0.3,0.7-0.7,1.3-1.4,1.5s-1.5,0-1.8-0.7c-0.2-0.4-0.1-0.8-0.1-1.3c0-2.1-1.9-3.7-2.2-5.7c-0.2-1.2,0.2-2.5,0.4-3.7
		c0.3-1.4,0.4-2.9,0.3-4.4c0-0.4-0.1-0.8-0.3-1s-0.5-0.3-0.8-0.4c-1.8-0.5-3.8-0.6-5.1-1.9C202.3,204,202,203.4,201.6,202.9z"/>
</g>
<path style="fill:#E6E9EE;" d="M413.2,150.8v24c0,4.3,3.5,7.8,7.8,7.8h24L413.2,150.8z"/>
<path style="fill:#FF7058;" d="M267.5,145.6c0,54.1-63.2,104.4-63.2,104.4S141,199.7,141,145.6c0-34.9,28.3-63.2,63.2-63.2
	C239.2,82.4,267.5,110.7,267.5,145.6z"/>
<circle style="fill:#FFFFFF;" cx="204.3" cy="145.6" r="41.1"/>
<g>
</g>
<g>
</g>
<g>
</g>
<g>
</g>
<g>
</g>
<g>
</g>
<g>
</g>
<g>
</g>
<g>
</g>
<g>
</g>
<g>
</g>
<g>
</g>
<g>
</g>
<g>
</g>
<g>
</g>
</svg>
