<?xml version="1.0" encoding="iso-8859-1"?>
<!-- Generator: Adobe Illustrator 19.0.0, SVG Export Plug-In . SVG Version: 6.00 Build 0)  -->
<svg version="1.1" id="Layer_1" xmlns="http://www.w3.org/2000/svg" xmlns:xlink="http://www.w3.org/1999/xlink" x="0px" y="0px"
	 viewBox="0 0 511.995 511.995" style="enable-background:new 0 0 511.995 511.995;" xml:space="preserve">
<polygon style="fill:#9DA4B3;" points="243.624,243.624 243.624,243.623 243.62,243.623 121.812,196.453 0,243.623 0,243.623 
	0,243.623 0,243.623 0,243.623 0,487.247 243.624,487.247 307.025,365.435 "/>
<polygon style="fill:#B4BBCC;" points="487.249,0.001 243.624,0.001 203.409,121.812 243.624,243.624 243.624,243.624 
	243.624,243.624 243.624,243.624 243.624,243.624 369.376,280.812 487.243,243.624 487.249,243.624 "/>
<rect y="0" style="fill:#C7CFE2;" width="243.622" height="243.622"/>
<rect x="243.622" y="243.622" style="fill:#868C99;" width="243.622" height="243.622"/>
<circle style="fill:#7DD2F0;" cx="365.433" cy="365.433" r="146.562"/>
<path style="opacity:0.1;enable-background:new    ;" d="M242.322,388.885c0-80.945,65.619-146.564,146.564-146.564
	c34.498,0,66.208,11.925,91.244,31.87c-26.853-33.709-68.248-55.32-114.694-55.32c-80.945,0-146.564,65.619-146.564,146.564
	c0,46.447,21.612,87.841,55.321,114.694C254.247,455.092,242.322,423.384,242.322,388.885z"/>
<g>
	<path style="fill:#FFFFFF;" d="M178.733,113.017H64.891c-4.856,0-8.794,3.937-8.794,8.794s3.937,8.794,8.794,8.794h113.843
		c4.856,0,8.794-3.937,8.794-8.794S183.59,113.017,178.733,113.017z"/>
	<path style="fill:#FFFFFF;" d="M178.733,356.641h-48.128v-48.128c0-4.857-3.937-8.794-8.794-8.794s-8.794,3.937-8.794,8.794v48.128
		H64.891c-4.856,0-8.794,3.937-8.794,8.794c0,4.856,3.937,8.794,8.794,8.794h48.128v48.128c0,4.856,3.937,8.794,8.794,8.794
		s8.794-3.937,8.794-8.794v-48.128h48.128c4.856,0,8.794-3.937,8.794-8.794C187.527,360.579,183.59,356.641,178.733,356.641z"/>
	<path style="fill:#FFFFFF;" d="M318.968,168.278c1.718,1.718,3.968,2.576,6.219,2.576c2.25,0,4.501-0.858,6.218-2.576
		l34.032-34.032l34.032,34.032c1.717,1.717,3.968,2.576,6.218,2.576s4.501-0.858,6.218-2.576c3.434-3.434,3.434-9.002,0-12.436
		l-34.032-34.032l34.032-34.032c3.434-3.434,3.434-9.002,0-12.436c-3.434-3.434-9.002-3.434-12.436,0l-34.032,34.032l-34.032-34.032
		c-3.434-3.434-9.001-3.434-12.436,0s-3.434,9.002,0,12.436l34.032,34.032l-34.032,34.032
		C315.534,159.277,315.534,164.845,318.968,168.278z"/>
	<path style="fill:#FFFFFF;" d="M321.94,353.126h86.992c4.856,0,8.794-3.937,8.794-8.794c0-4.857-3.937-8.794-8.794-8.794H321.94
		c-4.856,0-8.794,3.937-8.794,8.794C313.146,349.189,317.084,353.126,321.94,353.126z"/>
	<path style="fill:#FFFFFF;" d="M408.933,377.744H321.94c-4.856,0-8.794,3.937-8.794,8.794c0,4.856,3.937,8.794,8.794,8.794h86.992
		c4.856,0,8.794-3.937,8.794-8.794C417.726,381.681,413.789,377.744,408.933,377.744z"/>
</g>
<g>
</g>
<g>
</g>
<g>
</g>
<g>
</g>
<g>
</g>
<g>
</g>
<g>
</g>
<g>
</g>
<g>
</g>
<g>
</g>
<g>
</g>
<g>
</g>
<g>
</g>
<g>
</g>
<g>
</g>
</svg>
