<svg width="74" height="123" viewBox="0 0 74 123" fill="none" xmlns="http://www.w3.org/2000/svg">
<path d="M43.5921 0.967118C42.5121 1.92712 34.1121 18.5971 34.1121 18.5971L27.8621 43.8071L52.1821 41.5771C52.1821 41.5771 72.4121 3.95712 72.8221 3.08712C73.5521 1.50712 73.9421 0.857118 71.1521 0.857118C68.3621 0.847118 44.6021 0.0671179 43.5921 0.967118V0.967118Z" fill="#176CC7"/>
<path d="M56.1821 40.0171C54.9721 39.3671 19.3321 38.8071 18.4921 40.0171C17.7321 41.1171 18.1621 46.8871 18.4521 47.5771C18.9721 48.7771 30.4221 53.4271 30.4221 53.4271V56.3171C30.4221 56.3171 31.2021 56.6371 37.8821 56.6371C44.5621 56.6371 45.8921 56.2971 45.8921 56.2971L45.9421 53.5171C45.9421 53.5171 55.8821 48.3971 56.4021 47.6871C56.8621 47.0971 57.3921 40.6671 56.1821 40.0171ZM45.8421 49.1571C45.8421 49.1571 45.9821 47.7771 45.2921 47.4371C44.6021 47.0871 32.6721 47.1471 31.7321 47.1971C30.7921 47.2471 30.7921 48.9271 30.7921 48.9271L23.3221 44.9771L23.1921 43.6571L51.1321 43.8071L51.1921 45.5871L45.8421 49.1571V49.1571Z" fill="#FCC11A"/>
<path d="M33.5421 48.5671C32.6021 48.5671 31.8921 49.6271 31.8921 51.3071C31.8921 52.8871 32.4321 54.1871 33.6221 54.1171C34.7521 54.0571 35.2921 52.6271 35.2121 51.2871C35.1121 49.7171 34.7321 48.5671 33.5421 48.5671V48.5671Z" fill="#FDFFFF"/>
<path d="M3.81213 88.817C3.81213 112.777 25.5221 122.747 39.9321 122.317C56.7221 121.817 74.7821 109.077 73.2921 86.217C71.8921 64.767 53.6021 54.527 37.8221 54.647C19.4821 54.777 3.81213 67.887 3.81213 88.817V88.817Z" fill="#F8932A"/>
<path d="M39.0221 118.017C38.7721 118.017 38.5121 118.017 38.2621 118.007C30.7621 117.757 23.1421 114.927 17.7221 109.677C11.9221 104.057 8.34212 96.947 8.32212 88.777C8.27212 67.317 26.6621 59.427 38.4921 59.427H38.5921C54.6221 59.497 68.4721 71.477 68.8321 88.367C68.9921 95.887 65.9121 103.847 59.8721 109.787C54.2421 115.317 45.9321 118.017 39.0221 118.017V118.017Z" fill="#FCC11A"/>
<path d="M0.0121448 0.446979C-0.617855 1.02698 23.4721 43.927 23.4721 43.927C23.4721 43.927 27.5121 44.447 36.5321 44.527C45.5521 44.607 50.0221 44.007 50.0221 44.007C50.0221 44.007 31.2921 0.876979 30.1721 0.446979C29.6221 0.226979 22.2021 0.146979 14.9521 0.0669787C7.69215 -0.0230213 0.612145 -0.113021 0.0121448 0.446979V0.446979Z" fill="#2E9DF4"/>
<path d="M26.7921 64.077C25.3321 62.827 17.9021 66.597 12.6821 75.227C9.18213 81.017 8.88213 88.427 11.1121 88.547C13.3421 88.667 13.3121 81.337 18.1621 74.927C24.0221 67.217 28.9021 65.887 26.7921 64.077Z" fill="#FEFFFA"/>
<path d="M38.8721 63.627C36.9221 63.627 33.8821 76.5169 31.4921 78.1069C29.1021 79.6969 16.7221 78.177 16.5821 79.917C16.4421 81.657 25.7721 88.8969 26.8621 91.5669C27.9521 94.2369 22.1521 106.187 23.7521 107.347C25.3421 108.507 35.3321 100.177 38.6621 100.177C42.1321 100.177 51.0721 109.067 52.5621 107.847C54.1321 106.567 49.0921 94.887 49.8821 92.207C50.6821 89.527 61.5321 83.807 61.1021 81.207C60.6721 78.597 48.0721 80.557 45.7521 78.387C43.4321 76.217 40.9721 63.627 38.8721 63.627Z" fill="#F8932A"/>
</svg>
